<svg enable-background="new 0 0 520 520" height="512" viewBox="0 0 520 520" width="512" xmlns="http://www.w3.org/2000/svg"><g id="_x37_19_x2C__Award_x2C__Certificate_x2C__Degree_x2C__License"><g><circle cx="317.5" cy="42.5" r="7.5"/><g><path d="m342.377 416.457c-2.868 3.133-6.42 5.513-10.35 6.984l-4.025 9.56 15.256 36.234 4.536-18.145c.805-3.216 4.479-4.792 7.373-3.104l16.147 9.435-16.857-40.036c-4.256.646-8.295.259-12.08-.928z"/><path d="m324.1 338.206-.812-2.496-.812 2.496c-.669 2.061-2.589 3.455-4.755 3.455h-2.624l2.124 1.543c1.752 1.273 2.485 3.53 1.815 5.59l-.811 2.496 2.123-1.542c1.752-1.273 4.125-1.273 5.877 0l2.124 1.543-.811-2.497c-.67-2.06.063-4.316 1.815-5.59l2.124-1.543h-2.625c-2.164 0-4.083-1.394-4.752-3.455z"/><path d="m400 90c13.785 0 25-11.215 25-25s-11.215-25-25-25-25 11.215-25 25 11.215 25 25 25z"/><path d="m385.958 362.964c-1.107-2.251-.376-4.974 1.711-6.366 9.974-6.657 9.979-21.354-.008-28.048-2.081-1.394-2.809-4.112-1.704-6.359 5.357-10.895-2.155-23.521-14.019-24.296-2.502-.163-4.496-2.154-4.664-4.655-.377-5.646-3.519-10.7-8.402-13.521-4.811-2.78-10.937-2.953-15.908-.507-2.25 1.106-4.977.374-6.368-1.717-6.626-9.955-21.339-10.022-28.041.007-1.393 2.086-4.116 2.813-6.363 1.71-4.968-2.444-11.093-2.271-15.892.504-4.897 2.83-8.038 7.881-8.405 13.514-.163 2.507-2.159 4.503-4.665 4.665-11.89.773-19.378 13.397-14.018 24.295 1.106 2.25.376 4.971-1.708 6.364-10.005 6.686-9.993 21.394-.008 28.041 2.09 1.392 2.823 4.116 1.716 6.369-5.312 10.799 1.992 23.502 14.028 24.31 2.501.168 4.491 2.162 4.654 4.664.367 5.625 3.508 10.671 8.401 13.496 4.815 2.788 10.934 2.962 15.895.522 2.248-1.106 4.967-.378 6.361 1.704 6.703 10.007 21.407 9.958 28.047.007 1.393-2.088 4.115-2.818 6.366-1.711 4.963 2.44 11.092 2.26 15.907-.522 4.883-2.818 8.023-7.867 8.403-13.507.168-2.497 2.156-4.485 4.653-4.652 12.077-.812 19.297-13.609 14.031-24.311zm-63.381 33.385c-29.642 0-53.757-24.122-53.757-53.771 0-29.643 24.115-53.758 53.757-53.758 29.649 0 53.771 24.115 53.771 53.758.001 29.649-24.121 53.771-53.771 53.771z"/><path d="m145 435c-11.028 0-20 8.972-20 20s8.972 20 20 20 20-8.972 20-20-8.972-20-20-20z"/><path d="m302.783 416.456c-3.852 1.208-7.885 1.567-12.087.929l-16.858 40.036 16.148-9.435c2.873-1.68 6.564-.129 7.373 3.104l4.536 18.145 18.599-44.173c-6.811-.526-13.126-3.608-17.711-8.606z"/><path d="m322.577 298.819c-24.128 0-43.757 19.63-43.757 43.758 0 24.136 19.629 43.771 43.757 43.771 24.136 0 43.771-19.636 43.771-43.771.001-24.128-19.635-43.758-43.771-43.758zm27.229 41.887-11.633 8.453 4.442 13.676c.67 2.061-.063 4.316-1.816 5.59-1.752 1.273-4.125 1.273-5.877 0l-11.634-8.451-11.634 8.451c-1.752 1.273-4.124 1.273-5.878 0-1.752-1.273-2.485-3.53-1.815-5.59l4.443-13.676-11.634-8.453c-1.752-1.273-2.485-3.53-1.815-5.59.669-2.061 2.589-3.455 4.755-3.455h14.379l4.444-13.675c.669-2.061 2.589-3.455 4.755-3.455s4.086 1.395 4.755 3.455l4.444 13.675h14.379c2.166 0 4.086 1.395 4.755 3.455.67 2.06-.063 4.317-1.815 5.59z"/><path d="m423.833 130h-347.666c-17.186 0-31.167 13.981-31.167 31.167v202.667c0 17.185 13.981 31.166 31.167 31.166h187.281c-8.192-3.625-14.063-11.101-15.593-20h-177.855c-2.761 0-5-2.238-5-5v-215c0-2.761 2.239-5 5-5h360c2.762 0 5 2.239 5 5v215c0 2.762-2.238 5-5 5h-32.695c-1.546 8.948-7.455 16.396-15.591 20h42.119c17.186 0 31.167-13.981 31.167-31.167v-202.666c0-17.186-13.981-31.167-31.167-31.167z"/><path d="m268.497 288.496c3.367-15.197 19.076-24.556 34.282-19.787 10.649-11.632 29.012-11.588 39.602-.001 15.19-4.765 30.902 4.565 34.286 19.789 15.308 3.393 24.532 19.246 19.794 34.288 11.632 10.676 11.545 29.011.002 39.588.272.867.499 1.744.682 2.627h27.855v-205h-350v205h173.023c.183-.882.409-1.758.682-2.624-11.567-10.576-11.643-28.929.001-39.594-4.767-15.114 4.533-30.906 19.791-34.286zm-168.497-98.496h105c2.761 0 5 2.239 5 5s-2.239 5-5 5h-105c-2.761 0-5-2.239-5-5s2.239-5 5-5zm0 25h185c2.762 0 5 2.239 5 5s-2.238 5-5 5h-185c-2.761 0-5-2.239-5-5s2.239-5 5-5zm135 60h-135c-2.761 0-5-2.238-5-5s2.239-5 5-5h135c2.761 0 5 2.238 5 5s-2.239 5-5 5zm-135-25c-2.761 0-5-2.239-5-5s2.239-5 5-5h185c2.762 0 5 2.239 5 5s-2.238 5-5 5z"/><circle cx="207.5" cy="87.5" r="7.5"/><circle cx="77.5" cy="57.5" r="7.5"/><circle cx="442.5" cy="437.5" r="7.5"/><circle cx="227.5" cy="427.5" r="7.5"/><circle cx="67.5" cy="452.5" r="7.5"/></g></g></g></svg>