<svg id="OBJECT" viewBox="0 0 32 32" xmlns="http://www.w3.org/2000/svg" xmlns:xlink="http://www.w3.org/1999/xlink" width="375" height="375" version="1.1" xmlns:svgjs="http://svgjs.dev/svgjs"><g transform="matrix(1,0,0,1,0,0)"><linearGradient id="New_Gradient_Swatch-2" x2="33.49" xlink:href="#New_Gradient_Swatch" y1="9.87" y2="9.87" data-name="New Gradient Swatch"/><linearGradient id="New_Gradient_Swatch-3" x2="33.49" xlink:href="#New_Gradient_Swatch" y1="22" y2="22" data-name="New Gradient Swatch"/><path d="m30.06 13.01-5.33-11.43c-.11-.24-.32-.43-.56-.52-.25-.09-.52-.08-.76.03l-21.34 9.95c-.24.11-.43.31-.52.56s-.08.52.03.76l.3.65c-.5.06-.89.47-.89.98v16c0 .55.45 1 1 1h28c.55 0 1-.45 1-1v-15.99c0-.53-.41-.95-.94-.99zm-1.06 3.99h-1c-.55 0-1-.45-1-1v-1h2zm-4 11v1h-18v-1c0-1.65-1.35-3-3-3h-1v-6h1c1.65 0 3-1.35 3-3v-1h18v1c0 1.65 1.35 3 3 3h1v6h-1c-1.65 0-3 1.35-3 3zm-20-13v1c0 .55-.45 1-1 1h-1v-2zm13.77-2h-5.54c.03-1.03.62-2 1.59-2.45.67-.31 1.43-.35 2.13-.09.7.25 1.26.77 1.57 1.44.18.39.24.77.25 1.11zm4.57-9.67.58 1.24-.62.29c-.34.16-.75.01-.91-.33l-.29-.62zm-3.05 1.42.29.62c.45.97 1.42 1.55 2.43 1.55.38 0 .76-.08 1.13-.25l.62-.29 3.09 6.62h-7.09c0-.67-.13-1.33-.42-1.95-.54-1.16-1.5-2.04-2.7-2.47-1.2-.44-2.5-.38-3.66.16-1.69.79-2.71 2.47-2.74 4.26h-7.16l-.26-.57 16.48-7.68zm-17.29 22.25h1c.55 0 1 .45 1 1v1h-2zm24 2v-1c0-.55.45-1 1-1h1v2z" fill="url(#New_Gradient_Swatch)" data-original-color="New_Gradient_Swatch" stroke="none"/><path d="m22.1 11.23c.14 0 .29-.03.42-.09l1.52-.71c.5-.23.72-.83.48-1.33s-.83-.72-1.33-.48l-1.52.71c-.5.23-.72.83-.48 1.33.17.36.53.58.91.58z" fill="url(#New_Gradient_Swatch)" data-original-color="New_Gradient_Swatch" stroke="none"/><g fill="url(#New_Gradient_Swatch-3)"><path d="m16 16.5c-3.03 0-5.5 2.47-5.5 5.5s2.47 5.5 5.5 5.5 5.5-2.47 5.5-5.5-2.47-5.5-5.5-5.5zm0 9c-1.93 0-3.5-1.57-3.5-3.5s1.57-3.5 3.5-3.5 3.5 1.57 3.5 3.5-1.57 3.5-3.5 3.5z" fill="url(#New_Gradient_Swatch)" data-original-color="New_Gradient_Swatch" stroke="none"/><path d="m26 21h-2c-.55 0-1 .45-1 1s.45 1 1 1h2c.55 0 1-.45 1-1s-.45-1-1-1z" fill="url(#New_Gradient_Swatch)" data-original-color="New_Gradient_Swatch" stroke="none"/><path d="m8 21h-2c-.55 0-1 .45-1 1s.45 1 1 1h2c.55 0 1-.45 1-1s-.45-1-1-1z" fill="url(#New_Gradient_Swatch)" data-original-color="New_Gradient_Swatch" stroke="none"/></g></g><defs><linearGradient id="New_Gradient_Swatch"><stop stop-color="#e10007ff" offset="0"/><stop stop-color="#a10409ff" offset="1"/></linearGradient></defs></svg>