<svg viewBox="0 0 24 24" xmlns="http://www.w3.org/2000/svg" xmlns:xlink="http://www.w3.org/1999/xlink" width="375" height="375" version="1.1" xmlns:svgjs="http://svgjs.dev/svgjs"><g transform="matrix(1,0,0,1,0,0)"><g id="Icon"><path d="m20 2.25h-16a1.76 1.76 0 0 0 -1.75 1.75v10a1.76 1.76 0 0 0 1.75 1.75h16a1.76 1.76 0 0 0 1.75-1.75v-10a1.76 1.76 0 0 0 -1.75-1.75zm.25 11.75a.25.25 0 0 1 -.25.25h-16a.25.25 0 0 1 -.25-.25v-10a.25.25 0 0 1 .25-.25h16a.25.25 0 0 1 .25.25zm-5.84-6.07-3.53-2.12a1.24 1.24 0 0 0 -1.88 1.07v4.24a1.26 1.26 0 0 0 .63 1.09 1.33 1.33 0 0 0 .62.16 1.24 1.24 0 0 0 .64-.18l3.53-2.12a1.25 1.25 0 0 0 0-2.14zm-3.92 2.75v-3.36l2.79 1.68zm11.26 8.82a.76.76 0 0 1 -.75.75h-12.25v.75a.75.75 0 0 1 -1.5 0v-.75h-4.25a.75.75 0 0 1 0-1.5h4.25v-.75a.75.75 0 0 1 1.5 0v.75h12.25a.76.76 0 0 1 .75.75z" fill="url(#New_Gradient_Swatch_copy_4)" data-original-color="New_Gradient_Swatch_copy_4" stroke="none"/></g></g><defs><linearGradient id="New_Gradient_Swatch_copy_4"><stop stop-color="#e10007ff" offset="0"/><stop stop-color="#a10409ff" offset="1"/></linearGradient></defs></svg>