<svg id="OBJECT" height="375" viewBox="0 0 32 32" width="375" xmlns="http://www.w3.org/2000/svg" xmlns:xlink="http://www.w3.org/1999/xlink" version="1.1" xmlns:svgjs="http://svgjs.dev/svgjs"><g transform="matrix(1,0,0,1,0,0)"><linearGradient id="linear-gradient-2" x1="-.38" x2="30.93" xlink:href="#linear-gradient" y1="12" y2="12"/><linearGradient id="linear-gradient-3" gradientTransform="matrix(.94 .342 -.342 .94 4.11 -9.31)" x1="-.38" x2="30.93" xlink:href="#linear-gradient" y1="7" y2="7"/><linearGradient id="linear-gradient-4" gradientTransform="matrix(.342 .94 -.94 .342 34.71 -15.57)" x1="-.38" x2="30.93" xlink:href="#linear-gradient" y1="17" y2="17"/><linearGradient id="linear-gradient-6" gradientTransform="matrix(.342 .94 -.94 .342 8.9 1.29)" x1="-.38" x2="30.93" xlink:href="#linear-gradient" y1="7" y2="7"/><linearGradient id="linear-gradient-7" gradientTransform="matrix(.94 .342 -.342 .94 6.02 -.18)" x1="-.38" x2="30.93" xlink:href="#linear-gradient" y1="17" y2="17"/><linearGradient id="linear-gradient-8" x1="-.38" x2="30.93" xlink:href="#linear-gradient" y1="10" y2="10"/><linearGradient id="linear-gradient-9" x1="-.38" x2="30.93" xlink:href="#linear-gradient" y1="18.5" y2="18.5"/><path d="m24 19.51a11 11 0 1 0 -16.17-.12 8.22 8.22 0 0 1 2.17 5.61h-2v2h3.5v1.5a2.5 2.5 0 0 0 2.5 2.5h4a2.5 2.5 0 0 0 2.5-2.5v-1.5h3.5v-2h-2a7.87 7.87 0 0 1 2-5.49zm-5.53 9a.5.5 0 0 1 -.5.5h-3.97a.5.5 0 0 1 -.5-.5v-1.51h5zm-6.47-3.51a10.21 10.21 0 0 0 -2.66-7 8.93 8.93 0 0 1 -2.34-6.91 9 9 0 0 1 18 .91 8.93 8.93 0 0 1 -2.43 6.14 9.84 9.84 0 0 0 -2.57 6.86z" fill="url(#linear-gradient)" data-original-color="linear-gradient" stroke="none"/><path d="m28 11h3v2h-3z" fill="url(#linear-gradient)" data-original-color="linear-gradient" stroke="none"/><path d="m26.97 6h3v2h-3z" fill="url(#linear-gradient)" transform="matrix(.94 -.342 .342 .94 -.68 10.15)" data-original-color="linear-gradient" stroke="none"/><path d="m27.47 15.5h2v3h-2z" fill="url(#linear-gradient)" transform="matrix(.342 -.94 .94 .342 2.76 37.94)" data-original-color="linear-gradient" stroke="none"/><path d="m1 11h3v2h-3z" fill="url(#linear-gradient)" data-original-color="linear-gradient" stroke="none"/><path d="m2.53 5.5h2v3h-2z" fill="url(#linear-gradient)" transform="matrix(.342 -.94 .94 .342 -4.26 7.92)" data-original-color="linear-gradient" stroke="none"/><path d="m2.03 16h3v2h-3z" fill="url(#linear-gradient)" transform="matrix(.94 -.342 .342 .94 -5.6 2.23)" data-original-color="linear-gradient" stroke="none"/><path d="m16 5a3.2 3.2 0 0 0 -3.18 3.6l.69 5.52a1 1 0 0 0 1 .88h3a1 1 0 0 0 1-.88l.69-5.52a3.2 3.2 0 0 0 -3.2-3.6zm.62 8h-1.24l-.58-4.64a1.18 1.18 0 0 1 .3-.95 1.22 1.22 0 0 1 1.8 0 1.18 1.18 0 0 1 .3.95z" fill="url(#linear-gradient)" data-original-color="linear-gradient" stroke="none"/><path d="m17.5 16h-3a1 1 0 0 0 -1 1v3a1 1 0 0 0 1 1h3a1 1 0 0 0 1-1v-3a1 1 0 0 0 -1-1zm-1 3h-1v-1h1z" fill="url(#linear-gradient)" data-original-color="linear-gradient" stroke="none"/></g><defs><linearGradient id="linear-gradient"><stop stop-color="#e10007ff" offset="0"/><stop stop-color="#a10409ff" offset="1"/></linearGradient></defs></svg>