<svg id="Layer_1" height="512" viewBox="0 0 64 64" width="512" xmlns="http://www.w3.org/2000/svg" data-name="Layer 1"><circle cx="12" cy="11" r="1.5"/><circle cx="17" cy="11" r="1.5"/><circle cx="22" cy="11" r="1.5"/><path d="m54 5h-44a5 5 0 0 0 -5 5v6a1 1 0 0 0 1 1h52a1 1 0 0 0 1-1v-6a5 5 0 0 0 -5-5zm3 10h-50v-5a3.009 3.009 0 0 1 3-3h44a3.009 3.009 0 0 1 3 3z"/><path d="m51 12h-10a1 1 0 0 1 0-2h10a1 1 0 0 1 0 2z"/><path d="m37.138 32-8.142-5.182.004 10.361z"/><circle cx="24" cy="48" r="1"/><path d="m54 5h-44a5 5 0 0 0 -5 5v44a5 5 0 0 0 5 5h44a5 5 0 0 0 5-5v-44a5 5 0 0 0 -5-5zm-47 5a3.009 3.009 0 0 1 3-3h44a3.009 3.009 0 0 1 3 3v5h-50zm17 41a3.01 3.01 0 0 1 -2.82-2h-5.18a1 1 0 0 1 0-2h5.18a3 3 0 1 1 2.82 4zm3-13.82v-10.36a2 2 0 0 1 3.07-1.69l8.14 5.18a2 2 0 0 1 0 3.38l-8.14 5.18a2.047 2.047 0 0 1 -1.07.31 1.938 1.938 0 0 1 -.96-.25 2 2 0 0 1 -1.04-1.75zm21 11.82h-18a1 1 0 0 1 0-2h18a1 1 0 0 1 0 2z"/></svg>