<svg id="a" height="512" viewBox="0 0 64 64" width="512" xmlns="http://www.w3.org/2000/svg"><path d="m32.005 28.00012c-7.71973 0-14 6.28027-14 14 .76886 18.57294 27.23395 18.5675 28-.00012 0-7.7196-6.28027-13.99988-14-13.99988zm7.32715 11.49512-8.99902 7.99902c-.36523.32617-.83691.50586-1.32812.50586-.53418 0-1.03613-.20801-1.41406-.58594l-4-4c-1.82697-1.89069.94086-4.65674 2.82819-2.82806-.00006-.00006 2.66595 2.66595 2.66595 2.66595l7.5918-6.74609c.36328-.32617.83594-.50684 1.32812-.50684 1.78131-.06189 2.70551 2.3598 1.32715 3.49609z"/><path d="m12.55499 31.75012-4.77997-2.63c-.41003-.22003-.91003-.14001-1.23004.20996-.31.34003-.33997.86005-.07996 1.24005 1.12 1.60999 1.54999 4 1.10999 6.07996-.42999 2.04004-1.69 3.77002-3.22003 4.42999-.37.16003-.60999.52002-.60999.92004 0 .39996.23999.76001.60999.91998 1.53003.65997 2.79004 2.39001 3.22003 4.42999.44 2.08002.01001 4.47003-1.10999 6.08002-.24005.35999-.23004.83997.03998 1.17999.26001.34998.71997.47998 1.13.33002l5.28998-1.94c-3.67645-6.14221-3.89886-14.96631-.37-21.25z"/><path d="m59.65502 41.08008c-3.56787-1.50916-4.35297-7.51831-2.10986-10.50995.60577-.83301-.41809-1.96265-1.31024-1.44995.00006-.00006-4.77991 2.62994-4.77991 2.62994 3.52307 6.29047 3.33069 15.11566-.41003 21.25.04004 0 5.33002 1.94 5.33002 1.94.87872.3493 1.72125-.74463 1.16992-1.51007-2.24347-2.98987-1.45691-9.00323 2.11029-10.50995.79932-.31213.80023-1.5274-.00018-1.84003z"/><path d="m49.31499 32.00012c-.10999-.20001-.22998-.39001-.35999-.58002l8.73999-11.13c1.52997-1.95001 1.71002-4.58997.46002-6.72998l-6.15002-10.5-.33002-.56c-.16998-.29999-.47998-.48999-.82996-.5h-37.72002c-.56262-.0177-.88647.55585-1.12.98999 0 .01001-6.17999 10.57001-6.17999 10.57001-1.25 2.14001-1.07001 4.77997.46002 6.72998l8.75 11.16003c-8.28937 12.99384 1.31012 30.63025 16.97015 30.54987 15.38263.07623 25.00739-16.98035 17.30981-29.99988zm-.39001-28-6.76001 10h-20.35999l-6.76001-10h33.88zm-8.12 12-4.39001 6.48999c-2.82855-.65149-6.0329-.65393-8.85999.01001l-4.39996-6.5zm5.42999 37c-6.97125 9.2774-21.48834 9.28009-28.45996-.00024-10.60132-13.85834 2.66327-33.20874 19.50012-28.19971 11.97009 3.56836 16.64801 18.5271 8.95984 28.19995z"/></svg>