<svg width="32" height="25" viewBox="0 0 32 25" fill="none" xmlns="http://www.w3.org/2000/svg">
<path d="M0 18.2264C0 22.0409 2.9404 24.9019 6.6755 24.9019C10.4106 24.9019 13.351 22.0409 13.351 18.2264C13.351 15.6038 11.9205 13.3787 9.77484 12.3456L14.2252 0.901855H7.94702L2.06623 12.3456C0.715232 14.9681 0 16.637 0 18.2264ZM17.0066 18.2264C17.0066 22.0409 19.947 24.9019 23.6821 24.9019C27.4967 24.9019 30.3576 22.0409 30.3576 18.2264C30.3576 15.6038 28.9272 13.3787 26.7815 12.3456L31.2318 0.901855H24.9536L19.0729 12.3456C17.7219 14.9681 17.0066 16.637 17.0066 18.2264Z" fill="#E10007"></path>
</svg>