<svg id="Capa_1" enable-background="new 0 0 511.849 511.849" height="512" viewBox="0 0 511.849 511.849" width="512" xmlns="http://www.w3.org/2000/svg"><g><path d="m255.925 89.87c-36.346 0-70.787 3.046-99.599 8.811-10.142 2.029-18.132 4.129-24.231 6.001v178.614c0 40.798 24.511 78.654 63.968 98.793l59.862 30.555 59.862-30.555c39.457-20.14 63.968-57.995 63.968-98.793v-178.614c-6.1-1.872-14.09-3.973-24.231-6.001-28.812-5.764-63.254-8.811-99.599-8.811zm86.374 105.849-99.177 106.802c-2.823 3.04-6.778 4.774-10.926 4.793h-.066c-4.124 0-8.066-1.698-10.9-4.696l-51.588-54.576c-5.691-6.021-5.424-15.514.597-21.205 6.02-5.691 15.515-5.423 21.204.597l40.59 42.941 88.283-95.07c5.639-6.069 15.127-6.423 21.199-.785 6.07 5.637 6.421 15.129.784 21.199z"/><path d="m400.62 16.994c-76.205-22.659-213.185-22.659-289.391 0-45.874 13.039-69.134 31.338-69.134 54.389v211.913c0 74.791 43.319 143.362 113.052 178.955l93.959 47.958c4.283 2.186 9.355 2.186 13.639 0l93.959-47.958c69.732-35.593 113.052-104.165 113.052-178.955v-211.913c-.001-23.051-23.262-41.35-69.136-54.389zm9.135 266.302c0 52.129-30.78 100.223-80.329 125.514l-66.682 34.036c-4.283 2.186-9.355 2.186-13.639 0l-66.682-34.036c-49.549-25.291-80.329-73.385-80.329-125.514v-189.318c0-6.199 3.813-11.759 9.596-13.993 7.277-2.811 19.907-6.952 38.751-10.722 60.529-12.471 150.438-12.471 210.967 0 18.844 3.77 31.474 7.911 38.751 10.722 5.782 2.233 9.596 7.794 9.596 13.993z"/></g></svg>